<?xml version="1.0" encoding="UTF-8" standalone="no"?>
<!-- Created with Inkscape (http://www.inkscape.org/) -->

<svg
   xmlns:dc="http://purl.org/dc/elements/1.1/"
   xmlns:cc="http://creativecommons.org/ns#"
   xmlns:rdf="http://www.w3.org/1999/02/22-rdf-syntax-ns#"
   xmlns:svg="http://www.w3.org/2000/svg"
   xmlns="http://www.w3.org/2000/svg"
   xmlns:sodipodi="http://sodipodi.sourceforge.net/DTD/sodipodi-0.dtd"
   xmlns:inkscape="http://www.inkscape.org/namespaces/inkscape"
   width="512"
   height="312"
   viewBox="0 0 135.46666 82.550051"
   version="1.1"
   id="svg3869"
   inkscape:version="0.92.3 (2405546, 2018-03-11)"
   sodipodi:docname="logo-mc.svg">
  <defs
     id="defs3863">
    <clipPath
       clipPathUnits="userSpaceOnUse"
       id="clipPath20">
      <path
         d="M 0,623.62 H 1133.86 V 0 H 0 Z"
         id="path18"
         inkscape:connector-curvature="0" />
    </clipPath>
  </defs>
  <sodipodi:namedview
     id="base"
     pagecolor="#ffffff"
     bordercolor="#666666"
     borderopacity="1.0"
     inkscape:pageopacity="0.0"
     inkscape:pageshadow="2"
     inkscape:zoom="0.35"
     inkscape:cx="-145.71429"
     inkscape:cy="560"
     inkscape:document-units="mm"
     inkscape:current-layer="layer1"
     showgrid="false"
     units="px"
     inkscape:window-width="1920"
     inkscape:window-height="1016"
     inkscape:window-x="0"
     inkscape:window-y="27"
     inkscape:window-maximized="1" />
  <metadata
     id="metadata3866">
    <rdf:RDF>
      <cc:Work
         rdf:about="">
        <dc:format>image/svg+xml</dc:format>
        <dc:type
           rdf:resource="http://purl.org/dc/dcmitype/StillImage" />
        <dc:title></dc:title>
      </cc:Work>
    </rdf:RDF>
  </metadata>
  <g
     inkscape:label="Capa 1"
     inkscape:groupmode="layer"
     id="layer1"
     transform="translate(0,-214.44969)">
    <g
       transform="matrix(0.38851336,0,0,-0.38630049,-152.22388,376.1772)"
       id="g14"
       style="fill:#ff8300;fill-opacity:1">
      <g
         id="g16"
         clip-path="url(#clipPath20)"
         style="fill:#ff8300;fill-opacity:1">
        <g
           id="g22"
           transform="translate(544.7949,320.6802)"
           style="fill:#ff8300;fill-opacity:1">
          <path
             d="m 0,0 c 4.158,2.707 8.852,4.834 13.643,6.836 2.451,1.01 4.877,2.025 7.289,3.027 2.494,1.101 4.959,2.229 7.345,3.576 2.405,1.292 4.707,2.808 6.924,4.447 1.076,0.872 2.178,1.699 3.168,2.682 0.494,0.475 1.024,0.924 1.498,1.436 l 1.412,1.538 c 3.709,4.142 6.246,9.283 7.514,14.404 0.314,1.287 0.498,2.574 0.738,3.847 0.123,1.319 0.278,2.687 0.338,3.936 v 3.568 c -0.053,1.189 -0.123,2.366 -0.221,3.522 -0.117,1.38 -0.279,3.153 -0.47,4.488 0,0 -0.358,1.373 -1.465,1.438 -0.906,0.167 -4.16,-2.231 -6.043,-3.72 0.135,-0.924 0.299,-1.73 0.355,-2.733 0.061,-1.045 0.08,-2.104 0.086,-3.162 -0.037,-1.073 -0.074,-2.152 -0.107,-3.237 -0.121,-0.976 -0.236,-1.952 -0.352,-2.936 -0.22,-0.998 -0.39,-2.026 -0.654,-3.019 l -0.455,-1.474 -0.227,-0.74 -0.298,-0.71 -0.596,-1.429 c -0.231,-0.473 -0.486,-0.916 -0.727,-1.382 -0.437,-0.95 -1.072,-1.782 -1.627,-2.676 -0.289,-0.44 -0.654,-0.838 -0.974,-1.266 -0.336,-0.412 -0.639,-0.856 -1.033,-1.233 -0.098,-0.109 -0.2,-0.208 -0.303,-0.316 -0.793,2.438 -3.295,10.614 -2.86,16.326 1.018,9.405 14.188,16.658 15.881,16.465 1.709,-0.201 2.319,-3.595 2.319,-3.595 0,0 5.601,10.66 1.711,13.279 -1.418,0.957 -3.817,1.057 -6.272,0.808 -0.674,1.965 -1.404,3.871 -2.223,5.691 -1.666,3.609 -3.429,6.971 -6.304,9.898 -0.758,0.721 -1.602,1.428 -2.731,2.011 -0.304,0.138 -0.572,0.264 -0.931,0.394 -0.41,0.131 -0.948,0.252 -1.276,0.297 l -0.295,0.018 -0.142,0.01 -0.078,0.006 c -0.594,0.025 -0.231,0.003 -0.389,0.008 -0.309,-0.022 -0.635,-0.039 -0.92,-0.087 -2.334,-0.395 -3.84,-1.35 -5.217,-2.21 -2.691,-1.798 -4.679,-3.662 -6.474,-5.284 -0.174,-0.159 -0.346,-0.309 -0.506,-0.465 -0.569,-0.417 -1.219,-0.996 -1.977,-1.799 -0.273,-0.239 -0.529,-0.462 -0.783,-0.682 -2.408,-1.72 -4.73,0.198 -5.947,1.562 -3.086,3.996 -8.705,10.814 -10.551,11.205 -2.258,0.477 -5.272,-3.582 -4.035,-6.671 0,0 0.201,-0.249 0.549,-0.491 0.347,-0.242 0.172,2.384 1.371,2.149 1.199,-0.236 1.338,-4.236 2.422,-5.073 0,0 -2.219,-1.598 -4.059,0.2 0,0 -0.469,0.418 -0.934,0.839 -0.47,0.421 -0.929,-1.419 0.237,-2.398 1.158,-0.981 1.752,-1.655 3.838,-2.402 1.111,-0.396 4.687,-1.674 8.498,-3.439 6.164,-3.925 9.369,-0.904 9.369,-0.904 0.217,0.126 0.422,0.254 0.629,0.393 1.761,1.182 3.386,2.594 5.226,4.104 1.834,1.494 3.848,3.151 6.041,4.448 1.069,0.622 2.27,1.153 3.057,1.196 0.053,0.006 0.092,0.002 0.137,0 l 0.084,-0.007 0.293,-0.036 c 0.06,-0.039 -0.09,-0.05 -0.12,-0.022 0.01,-0.011 0.11,-0.075 0.161,-0.094 0.304,-0.183 0.726,-0.549 1.15,-0.998 1.729,-1.939 3.303,-4.986 4.576,-8.23 0.502,-1.267 1.096,-3.089 1.522,-4.469 -1.082,-0.3 -1.774,-0.524 -1.774,-0.524 -0.773,1.805 -2.183,3.439 -4.699,2.912 C 29.961,72.382 26.279,70.045 21.203,66.528 15.934,63.091 10.781,63.606 10.781,63.606 12.326,60.072 14.678,59.313 14.678,59.313 9.596,55.344 6.84,48.234 6.84,48.234 H 6.848 C 4.553,43.305 2.08,36.637 0.662,28.76 c -2.303,0.169 -4.885,0.92 -4.885,0.92 -7.716,2.454 -11.715,4.371 -11.715,4.371 0,0 -17.353,7.084 -6.427,23.509 0,0 9.177,10.026 -8.35,18.338 0,0 -13.117,6.456 -29.603,7.154 -16.489,0.699 -61.344,1.818 -86.78,5.311 0,0 32.25,-30.068 43.092,-39.631 0,0 5.602,-5.224 12.252,-4.593 0,0 11.027,0.21 26.262,3.562 0,0 -8.106,-6.915 -17.465,-8.14 0,0 9.578,-19.038 22.959,-26.691 0,0 4.535,-2.521 9.076,-1.657 0,0 9.85,1.362 18.018,5.435 0,0 -4.129,-6.166 -17.172,-9.516 0,0 13.076,-10.497 32.506,-14.971 0,0 -1.047,-6.837 5.781,-11.032 0.004,3.166 0.617,6.187 2.031,8.864 C -7.754,-5.983 -4.166,-2.676 0,0"
             style="fill:#ff8300;fill-opacity:1;fill-rule:nonzero;stroke:none"
             id="path24"
             inkscape:connector-curvature="0" />
        </g>
        <g
           id="g26"
           transform="translate(649.3887,403.7319)"
           style="fill:#ff8300;fill-opacity:1">
          <path
             d="m 0,0 c -16.49,-0.698 -29.613,-7.154 -29.613,-7.154 -17.524,-8.312 -8.344,-18.338 -8.344,-18.338 10.918,-16.425 -6.43,-23.508 -6.43,-23.508 0,0 -4.599,-1.883 -11.218,-3.886 -1.706,-3.983 -4.278,-7.359 -5.795,-9.153 0,0 -1.817,-2.202 -3.961,-3.942 -0.471,-0.387 -0.93,-0.759 -1.385,-1.121 l -0.762,-0.606 c -2.513,-1.862 -4.896,-3.397 -7.303,-4.693 -2.49,-1.409 -5.107,-2.596 -7.562,-3.688 l -7.365,-3.058 c -4.428,-1.854 -9.084,-3.932 -13.135,-6.561 -0.08,-0.049 -0.154,-0.099 -0.234,-0.155 -2.248,-1.528 -3.747,-2.77 -4.764,-3.747 20.016,0.08 25.412,-12.312 25.412,-12.312 0,0 7.404,17.079 37.166,11.031 9.686,1.965 24.606,6.229 35.045,14.971 -13.043,3.35 -17.172,9.516 -17.172,9.516 8.166,-4.073 18.022,-5.434 18.022,-5.434 4.543,-0.865 9.076,1.656 9.076,1.656 13.379,7.654 22.953,26.691 22.953,26.691 -9.356,1.225 -17.461,8.14 -17.461,8.14 15.225,-3.352 26.256,-3.562 26.256,-3.562 6.652,-0.631 12.252,4.594 12.252,4.594 C 54.527,-24.757 86.773,5.312 86.773,5.312 61.34,1.818 16.486,0.699 0,0"
             style="fill:#ff8300;fill-opacity:1;fill-rule:nonzero;stroke:none"
             id="path28"
             inkscape:connector-curvature="0" />
        </g>
        <g
           id="g30"
           transform="translate(463.375,283.6533)"
           style="fill:#ff8300;fill-opacity:1">
          <path
             d="m 0,0 v -25.363 c 0,-0.248 -0.084,-0.457 -0.258,-0.631 -0.172,-0.174 -0.383,-0.262 -0.629,-0.262 h -5.58 c -0.244,0 -0.457,0.088 -0.627,0.262 -0.174,0.174 -0.26,0.383 -0.26,0.631 v 11.957 c 0,0.246 -0.111,0.383 -0.333,0.408 -0.225,0.025 -0.411,-0.063 -0.557,-0.26 L -14.5,-23.322 c -0.125,-0.198 -0.324,-0.299 -0.596,-0.299 -0.273,0 -0.484,0.101 -0.633,0.299 l -6.251,10.064 c -0.125,0.197 -0.299,0.285 -0.524,0.26 -0.225,-0.025 -0.334,-0.162 -0.334,-0.408 v -11.957 c 0,-0.248 -0.086,-0.457 -0.258,-0.631 -0.174,-0.174 -0.383,-0.262 -0.629,-0.262 h -5.58 c -0.246,0 -0.457,0.088 -0.629,0.262 -0.17,0.174 -0.257,0.383 -0.257,0.631 V 0 c 0,0.248 0.087,0.457 0.257,0.629 0.174,0.176 0.385,0.262 0.629,0.262 h 5.174 c 0.246,0 0.504,-0.075 0.777,-0.221 0.27,-0.149 0.467,-0.324 0.59,-0.522 l 7.147,-10.472 c 0.148,-0.197 0.324,-0.297 0.521,-0.297 0.2,0 0.362,0.1 0.485,0.297 l 7.146,10.472 c 0.149,0.198 0.358,0.373 0.631,0.522 0.27,0.146 0.529,0.221 0.773,0.221 h 5.174 c 0.246,0 0.455,-0.086 0.629,-0.262 C -0.084,0.457 0,0.248 0,0"
             style="fill:#ff8300;fill-opacity:1;fill-rule:nonzero;stroke:none"
             id="path32"
             inkscape:connector-curvature="0" />
        </g>
        <g
           id="g34"
           transform="translate(474.9258,270.9912)"
           style="fill:#ff8300;fill-opacity:1">
          <path
             d="m 0,0 c 0,-0.943 0.174,-1.834 0.52,-2.676 0.345,-0.84 0.822,-1.584 1.431,-2.226 0.606,-0.647 1.317,-1.159 2.133,-1.543 0.818,-0.383 1.684,-0.576 2.6,-0.576 0.916,0 1.783,0.193 2.597,0.576 0.819,0.384 1.537,0.896 2.155,1.543 0.621,0.642 1.103,1.386 1.451,2.226 0.345,0.842 0.517,1.733 0.517,2.676 0,0.916 -0.172,1.799 -0.517,2.654 -0.348,0.854 -0.83,1.598 -1.451,2.229 C 10.818,5.514 10.1,6.02 9.281,6.404 8.467,6.787 7.6,6.98 6.684,6.98 5.768,6.98 4.902,6.787 4.084,6.404 3.268,6.02 2.557,5.514 1.951,4.883 1.342,4.252 0.865,3.508 0.52,2.654 0.174,1.799 0,0.916 0,0 m -7.354,0 c 0,1.93 0.372,3.748 1.116,5.457 0.742,1.707 1.744,3.201 3.008,4.477 1.261,1.273 2.748,2.283 4.457,3.025 1.707,0.742 3.527,1.113 5.457,1.113 1.931,0 3.75,-0.371 5.459,-1.113 1.709,-0.742 3.199,-1.752 4.474,-3.025 1.276,-1.276 2.285,-2.77 3.028,-4.477 C 20.389,3.748 20.758,1.93 20.758,0 c 0,-1.932 -0.369,-3.752 -1.113,-5.459 -0.743,-1.711 -1.752,-3.201 -3.028,-4.477 -1.275,-1.275 -2.765,-2.283 -4.474,-3.027 -1.709,-0.742 -3.528,-1.113 -5.459,-1.113 -1.93,0 -3.75,0.371 -5.457,1.113 -1.709,0.744 -3.196,1.752 -4.457,3.027 -1.264,1.276 -2.266,2.766 -3.008,4.477 -0.744,1.707 -1.116,3.527 -1.116,5.459"
             style="fill:#ff8300;fill-opacity:1;fill-rule:nonzero;stroke:none"
             id="path36"
             inkscape:connector-curvature="0" />
        </g>
        <g
           id="g38"
           transform="translate(507.3437,258.2139)"
           style="fill:#ff8300;fill-opacity:1">
          <path
             d="m 0,0 -11.215,25.291 c -0.125,0.271 -0.129,0.521 -0.019,0.742 0.113,0.223 0.328,0.334 0.652,0.334 h 6.053 c 0.246,0 0.486,-0.08 0.724,-0.242 0.235,-0.162 0.414,-0.354 0.537,-0.574 L 3.268,10.623 c 0.125,-0.223 0.285,-0.336 0.484,-0.336 0.197,0 0.357,0.113 0.484,0.336 l 6.496,14.928 c 0.125,0.22 0.303,0.412 0.539,0.574 0.235,0.162 0.477,0.242 0.723,0.242 h 6.166 c 0.272,0 0.471,-0.105 0.594,-0.314 0.125,-0.213 0.137,-0.416 0.039,-0.614 L 7.465,0 C 7.34,-0.223 7.16,-0.414 6.928,-0.574 6.691,-0.736 6.449,-0.816 6.203,-0.816 H 1.264 c -0.248,0 -0.491,0.08 -0.725,0.242 C 0.305,-0.414 0.125,-0.223 0,0"
             style="fill:#ff8300;fill-opacity:1;fill-rule:nonzero;stroke:none"
             id="path40"
             inkscape:connector-curvature="0" />
        </g>
        <g
           id="g42"
           transform="translate(535.9062,257.3975)"
           style="fill:#ff8300;fill-opacity:1">
          <path
             d="m 0,0 h -5.582 c -0.268,0 -0.484,0.088 -0.645,0.262 -0.16,0.174 -0.24,0.383 -0.24,0.631 v 25.363 c 0,0.248 0.08,0.457 0.24,0.629 0.161,0.176 0.377,0.261 0.645,0.261 H 0 c 0.248,0 0.455,-0.085 0.629,-0.261 0.172,-0.172 0.258,-0.381 0.258,-0.629 V 0.893 C 0.887,0.645 0.801,0.436 0.629,0.262 0.455,0.088 0.248,0 0,0"
             style="fill:#ff8300;fill-opacity:1;fill-rule:nonzero;stroke:none"
             id="path44"
             inkscape:connector-curvature="0" />
        </g>
        <g
           id="g46"
           transform="translate(572.998,283.6533)"
           style="fill:#ff8300;fill-opacity:1">
          <path
             d="m 0,0 v -25.363 c 0,-0.248 -0.084,-0.457 -0.256,-0.631 -0.176,-0.174 -0.383,-0.262 -0.629,-0.262 h -5.578 c -0.248,0 -0.459,0.088 -0.631,0.262 -0.172,0.174 -0.258,0.383 -0.258,0.631 v 11.957 c 0,0.246 -0.111,0.383 -0.335,0.408 -0.221,0.025 -0.409,-0.063 -0.557,-0.26 L -14.5,-23.322 c -0.123,-0.198 -0.322,-0.299 -0.594,-0.299 -0.271,0 -0.486,0.101 -0.635,0.299 l -6.251,10.064 c -0.125,0.197 -0.299,0.285 -0.522,0.26 -0.225,-0.025 -0.336,-0.162 -0.336,-0.408 v -11.957 c 0,-0.248 -0.084,-0.457 -0.256,-0.631 -0.176,-0.174 -0.383,-0.262 -0.629,-0.262 h -5.58 c -0.246,0 -0.457,0.088 -0.627,0.262 -0.175,0.174 -0.259,0.383 -0.259,0.631 V 0 c 0,0.248 0.084,0.457 0.259,0.629 0.17,0.176 0.381,0.262 0.627,0.262 h 5.172 c 0.248,0 0.506,-0.075 0.777,-0.221 0.272,-0.149 0.467,-0.324 0.592,-0.522 l 7.147,-10.472 c 0.15,-0.197 0.322,-0.297 0.521,-0.297 0.199,0 0.362,0.1 0.485,0.297 l 7.148,10.472 c 0.147,0.198 0.354,0.373 0.627,0.522 0.27,0.146 0.529,0.221 0.775,0.221 h 5.174 c 0.246,0 0.453,-0.086 0.629,-0.262 C -0.084,0.457 0,0.248 0,0"
             style="fill:#ff8300;fill-opacity:1;fill-rule:nonzero;stroke:none"
             id="path48"
             inkscape:connector-curvature="0" />
        </g>
        <g
           id="g50"
           transform="translate(586.5977,257.3975)"
           style="fill:#ff8300;fill-opacity:1">
          <path
             d="m 0,0 h -5.582 c -0.27,0 -0.484,0.088 -0.647,0.262 -0.16,0.174 -0.238,0.383 -0.238,0.631 v 25.363 c 0,0.248 0.078,0.457 0.238,0.629 0.163,0.176 0.377,0.261 0.647,0.261 H 0 c 0.244,0 0.453,-0.085 0.627,-0.261 0.172,-0.172 0.26,-0.381 0.26,-0.629 V 0.893 C 0.887,0.645 0.799,0.436 0.627,0.262 0.453,0.088 0.244,0 0,0"
             style="fill:#ff8300;fill-opacity:1;fill-rule:nonzero;stroke:none"
             id="path52"
             inkscape:connector-curvature="0" />
        </g>
        <g
           id="g54"
           transform="translate(600.7031,276.8584)"
           style="fill:#ff8300;fill-opacity:1">
          <path
             d="m 0,0 v -1.561 c 0,-0.248 0.086,-0.459 0.26,-0.63 0.174,-0.174 0.383,-0.26 0.633,-0.26 h 10.062 c 0.246,0 0.459,-0.09 0.633,-0.262 0.172,-0.172 0.258,-0.383 0.258,-0.631 v -5.123 c 0,-0.248 -0.086,-0.461 -0.258,-0.633 -0.174,-0.173 -0.387,-0.257 -0.633,-0.257 H 0.893 c -0.25,0 -0.459,-0.09 -0.633,-0.262 C 0.086,-9.793 0,-10.004 0,-10.25 v -1.412 c 0,-0.248 0.086,-0.459 0.26,-0.631 0.174,-0.174 0.383,-0.262 0.633,-0.262 h 11.546 c 0.249,0 0.457,-0.086 0.633,-0.258 0.172,-0.173 0.26,-0.384 0.26,-0.632 v -5.123 c 0,-0.248 -0.088,-0.457 -0.26,-0.631 -0.176,-0.174 -0.384,-0.262 -0.633,-0.262 h -18.9 c -0.25,0 -0.459,0.088 -0.633,0.262 -0.172,0.174 -0.26,0.383 -0.26,0.631 v 25.4 c 0,0.246 0.088,0.457 0.26,0.633 0.174,0.172 0.383,0.258 0.633,0.258 h 18.9 c 0.249,0 0.457,-0.086 0.633,-0.258 0.172,-0.176 0.26,-0.387 0.26,-0.633 V 1.781 c 0,-0.248 -0.088,-0.457 -0.26,-0.633 C 12.896,0.977 12.688,0.891 12.439,0.891 H 0.893 C 0.643,0.891 0.434,0.803 0.26,0.629 0.086,0.457 0,0.246 0,0"
             style="fill:#ff8300;fill-opacity:1;fill-rule:nonzero;stroke:none"
             id="path56"
             inkscape:connector-curvature="0" />
        </g>
        <g
           id="g58"
           transform="translate(645.2285,283.6904)"
           style="fill:#ff8300;fill-opacity:1">
          <path
             d="m 0,0 v -25.4 c 0,-0.248 -0.086,-0.457 -0.258,-0.631 -0.174,-0.174 -0.385,-0.262 -0.631,-0.262 h -5.486 c -0.248,0 -0.506,0.074 -0.775,0.223 -0.274,0.148 -0.485,0.322 -0.633,0.521 l -9.67,13.627 c -0.151,0.199 -0.305,0.279 -0.467,0.242 -0.16,-0.037 -0.238,-0.181 -0.238,-0.427 V -25.4 c 0,-0.248 -0.088,-0.457 -0.262,-0.631 -0.176,-0.174 -0.387,-0.262 -0.635,-0.262 h -5.56 c -0.25,0 -0.461,0.088 -0.635,0.262 -0.176,0.174 -0.262,0.383 -0.262,0.631 V 0 c 0,0.246 0.086,0.457 0.26,0.633 0.174,0.172 0.383,0.258 0.631,0.258 h 5.57 c 0.248,0 0.508,-0.069 0.78,-0.205 0.273,-0.135 0.484,-0.303 0.63,-0.5 l 9.657,-13.629 c 0.148,-0.2 0.302,-0.286 0.464,-0.26 0.161,0.023 0.243,0.16 0.243,0.408 V 0 c 0,0.246 0.086,0.457 0.259,0.633 0.174,0.172 0.383,0.258 0.631,0.258 h 5.496 c 0.246,0 0.459,-0.086 0.631,-0.258 C -0.086,0.457 0,0.246 0,0"
             style="fill:#ff8300;fill-opacity:1;fill-rule:nonzero;stroke:none"
             id="path60"
             inkscape:connector-curvature="0" />
        </g>
        <g
           id="g62"
           transform="translate(669.9238,277.749)"
           style="fill:#ff8300;fill-opacity:1">
          <path
             d="M 0,0 H -5.199 C -5.447,0 -5.656,-0.088 -5.828,-0.262 -6.004,-0.434 -6.09,-0.645 -6.09,-0.891 v -18.568 c 0,-0.248 -0.08,-0.457 -0.24,-0.631 -0.162,-0.174 -0.379,-0.262 -0.652,-0.262 h -5.569 c -0.248,0 -0.457,0.088 -0.631,0.262 -0.175,0.174 -0.259,0.383 -0.259,0.631 v 18.568 c 0,0.246 -0.082,0.457 -0.243,0.629 -0.16,0.174 -0.379,0.262 -0.65,0.262 h -5.273 c -0.248,0 -0.457,0.086 -0.631,0.258 -0.174,0.176 -0.262,0.385 -0.262,0.633 v 5.05 c 0,0.246 0.088,0.457 0.262,0.633 0.174,0.172 0.383,0.258 0.631,0.258 L 0,6.832 C 0.273,6.832 0.488,6.746 0.65,6.574 0.811,6.398 0.891,6.187 0.891,5.941 V 0.891 C 0.891,0.643 0.811,0.434 0.65,0.258 0.488,0.086 0.273,0 0,0"
             style="fill:#ff8300;fill-opacity:1;fill-rule:nonzero;stroke:none"
             id="path64"
             inkscape:connector-curvature="0" />
        </g>
        <g
           id="g66"
           transform="translate(680.1738,270.9912)"
           style="fill:#ff8300;fill-opacity:1">
          <path
             d="m 0,0 c 0,-0.943 0.174,-1.834 0.52,-2.676 0.345,-0.84 0.824,-1.584 1.431,-2.226 0.606,-0.647 1.319,-1.159 2.135,-1.543 0.816,-0.383 1.682,-0.576 2.6,-0.576 0.914,0 1.783,0.193 2.599,0.576 0.817,0.384 1.535,0.896 2.154,1.543 0.618,0.642 1.1,1.386 1.448,2.226 0.345,0.842 0.521,1.733 0.521,2.676 0,0.916 -0.176,1.799 -0.521,2.654 -0.348,0.854 -0.83,1.598 -1.448,2.229 C 10.82,5.514 10.102,6.02 9.285,6.404 8.469,6.787 7.6,6.98 6.686,6.98 5.768,6.98 4.902,6.787 4.086,6.404 3.27,6.02 2.557,5.514 1.951,4.883 1.344,4.252 0.865,3.508 0.52,2.654 0.174,1.799 0,0.916 0,0 m -7.354,0 c 0,1.93 0.374,3.748 1.116,5.457 0.744,1.707 1.744,3.201 3.008,4.477 1.263,1.273 2.748,2.283 4.455,3.025 1.711,0.742 3.529,1.113 5.461,1.113 1.929,0 3.75,-0.371 5.459,-1.113 1.709,-0.742 3.199,-1.752 4.474,-3.025 1.276,-1.276 2.285,-2.77 3.027,-4.477 C 20.389,3.748 20.76,1.93 20.76,0 c 0,-1.932 -0.371,-3.752 -1.114,-5.459 -0.742,-1.711 -1.751,-3.201 -3.027,-4.477 -1.275,-1.275 -2.765,-2.283 -4.474,-3.027 -1.709,-0.742 -3.53,-1.113 -5.459,-1.113 -1.932,0 -3.75,0.371 -5.461,1.113 -1.707,0.744 -3.192,1.752 -4.455,3.027 -1.264,1.276 -2.264,2.766 -3.008,4.477 C -6.98,-3.752 -7.354,-1.932 -7.354,0"
             style="fill:#ff8300;fill-opacity:1;fill-rule:nonzero;stroke:none"
             id="path68"
             inkscape:connector-curvature="0" />
        </g>
        <g
           id="g70"
           transform="translate(443.6953,220.583)"
           style="fill:#ff8300;fill-opacity:1">
          <path
             d="m 0,0 c -0.959,-1.547 -2.016,-2.951 -3.17,-4.215 -1.156,-1.264 -2.453,-2.34 -3.887,-3.226 -1.437,-0.889 -3.029,-1.577 -4.777,-2.069 -1.752,-0.492 -3.684,-0.74 -5.795,-0.74 -2.641,0 -5.117,0.496 -7.428,1.486 -2.31,0.991 -4.332,2.328 -6.064,4.012 -1.733,1.684 -3.094,3.662 -4.086,5.943 -0.99,2.276 -1.484,4.702 -1.484,7.276 0,2.574 0.494,5.002 1.484,7.281 0.992,2.275 2.353,4.256 4.086,5.939 1.732,1.684 3.754,3.022 6.064,4.012 2.311,0.99 4.787,1.487 7.428,1.487 2.178,0 4.143,-0.249 5.893,-0.745 1.748,-0.494 3.334,-1.187 4.754,-2.078 1.418,-0.892 2.697,-1.976 3.836,-3.244 C -2.006,19.848 -0.959,18.453 0,16.936 0.164,16.672 0.195,16.391 0.098,16.094 0,15.795 -0.199,15.582 -0.498,15.451 l -7.029,-2.775 c -0.332,-0.133 -0.661,-0.133 -0.993,0 -0.328,0.133 -0.576,0.33 -0.742,0.594 -0.957,1.519 -2.113,2.681 -3.465,3.492 -1.355,0.808 -2.988,1.213 -4.902,1.213 -1.254,0 -2.433,-0.266 -3.541,-0.793 -1.105,-0.532 -2.07,-1.235 -2.896,-2.112 -0.827,-0.877 -1.469,-1.894 -1.932,-3.052 -0.461,-1.159 -0.691,-2.352 -0.691,-3.575 0,-1.259 0.23,-2.457 0.691,-3.599 0.463,-1.143 1.105,-2.145 1.932,-3.006 0.826,-0.859 1.791,-1.553 2.896,-2.082 1.108,-0.531 2.287,-0.795 3.541,-0.795 1.815,0 3.457,0.439 4.926,1.312 1.469,0.875 2.635,2.004 3.492,3.393 0.164,0.262 0.404,0.461 0.717,0.594 0.312,0.131 0.635,0.131 0.967,0 L -0.498,1.486 C -0.199,1.354 0,1.148 0.098,0.867 0.195,0.586 0.164,0.299 0,0"
             style="fill:#ff8300;fill-opacity:1;fill-rule:nonzero;stroke:none"
             id="path72"
             inkscape:connector-curvature="0" />
        </g>
        <g
           id="g74"
           transform="translate(456.1777,210.9775)"
           style="fill:#ff8300;fill-opacity:1">
          <path
             d="m 0,0 h -7.441 c -0.36,0 -0.649,0.117 -0.862,0.346 -0.213,0.23 -0.32,0.511 -0.32,0.843 v 33.819 c 0,0.328 0.107,0.609 0.32,0.842 0.213,0.23 0.502,0.345 0.862,0.345 H 0 c 0.328,0 0.607,-0.115 0.836,-0.345 0.23,-0.233 0.346,-0.514 0.346,-0.842 V 1.189 C 1.182,0.857 1.066,0.576 0.836,0.346 0.607,0.117 0.328,0 0,0"
             style="fill:#ff8300;fill-opacity:1;fill-rule:nonzero;stroke:none"
             id="path76"
             inkscape:connector-curvature="0" />
        </g>
        <g
           id="g78"
           transform="translate(463.7461,245.9854)"
           style="fill:#ff8300;fill-opacity:1">
          <path
             d="m 0,0 c 0,0.328 0.113,0.609 0.344,0.842 0.23,0.23 0.51,0.345 0.838,0.345 H 8.621 C 8.949,1.187 9.23,1.072 9.459,0.842 9.689,0.609 9.805,0.328 9.805,0 v -20.053 c 0,-1.291 0.205,-2.353 0.621,-3.195 0.414,-0.842 0.929,-1.502 1.541,-1.981 0.613,-0.478 1.267,-0.816 1.965,-1.015 0.695,-0.197 1.326,-0.297 1.888,-0.297 0.563,0 1.194,0.1 1.891,0.297 0.695,0.199 1.342,0.537 1.939,1.015 0.594,0.479 1.1,1.139 1.516,1.981 0.414,0.842 0.623,1.904 0.623,3.195 V 0 c 0,0.328 0.111,0.609 0.342,0.842 0.23,0.23 0.51,0.345 0.838,0.345 h 7.441 c 0.326,0 0.606,-0.115 0.834,-0.345 C 31.475,0.609 31.592,0.328 31.592,0 v -20.053 c 0,-2.345 -0.373,-4.474 -1.115,-6.388 -0.741,-1.916 -1.803,-3.547 -3.186,-4.903 -1.385,-1.351 -3.049,-2.402 -4.992,-3.142 -1.947,-0.744 -4.106,-1.116 -6.479,-1.116 -2.373,0 -4.533,0.372 -6.474,1.116 -1.948,0.74 -3.612,1.791 -4.994,3.142 -1.385,1.356 -2.457,2.987 -3.215,4.903 C 0.379,-24.527 0,-22.398 0,-20.053 Z"
             style="fill:#ff8300;fill-opacity:1;fill-rule:nonzero;stroke:none"
             id="path80"
             inkscape:connector-curvature="0" />
        </g>
        <g
           id="g82"
           transform="translate(513.6074,220.0889)"
           style="fill:#ff8300;fill-opacity:1">
          <path
             d="m 0,0 h 3.713 c 0.924,0 1.881,0.115 2.873,0.346 0.99,0.232 1.881,0.67 2.672,1.312 0.793,0.645 1.445,1.553 1.957,2.723 0.51,1.172 0.767,2.699 0.767,4.58 0,1.881 -0.257,3.41 -0.767,4.58 -0.512,1.172 -1.172,2.08 -1.981,2.725 -0.808,0.644 -1.701,1.08 -2.673,1.312 -0.975,0.231 -1.924,0.346 -2.848,0.346 H 0 c -0.33,0 -0.613,-0.115 -0.842,-0.346 -0.23,-0.232 -0.347,-0.512 -0.347,-0.842 V 1.187 c 0,-0.33 0.117,-0.609 0.347,-0.841 C -0.613,0.115 -0.33,0 0,0 m -10.994,-7.922 v 33.869 c 0,0.326 0.117,0.61 0.349,0.838 0.231,0.233 0.51,0.35 0.842,0.35 H 3.713 c 5.182,0 9.424,-1.52 12.724,-4.557 1.786,-1.65 3.137,-3.617 4.063,-5.892 0.922,-2.278 1.385,-4.834 1.385,-7.674 0,-2.84 -0.463,-5.407 -1.385,-7.701 C 19.574,-0.982 18.223,-2.955 16.437,-4.604 14.787,-6.09 12.898,-7.213 10.768,-7.971 8.639,-8.73 6.289,-9.111 3.713,-9.111 H -9.803 c -0.332,0 -0.611,0.117 -0.842,0.345 -0.232,0.231 -0.349,0.512 -0.349,0.844"
             style="fill:#ff8300;fill-opacity:1;fill-rule:nonzero;stroke:none"
             id="path84"
             inkscape:connector-curvature="0" />
        </g>
        <g
           id="g86"
           transform="translate(550.9414,224.5459)"
           style="fill:#ff8300;fill-opacity:1">
          <path
             d="M 0,0 H 4.406 C 4.736,0 4.977,0.105 5.125,0.32 5.273,0.535 5.266,0.791 5.1,1.09 4.77,1.914 4.375,2.879 3.912,3.986 3.449,5.092 3.021,6.121 2.625,7.078 2.49,7.377 2.344,7.525 2.18,7.525 2.014,7.525 1.865,7.377 1.734,7.078 L -0.742,1.09 C -0.875,0.791 -0.875,0.535 -0.742,0.32 -0.609,0.105 -0.363,0 0,0 m -2.922,21.539 c 0.133,0.295 0.354,0.551 0.67,0.768 0.313,0.213 0.65,0.32 1.014,0.32 h 6.933 c 0.328,0 0.649,-0.107 0.965,-0.32 0.315,-0.217 0.535,-0.473 0.668,-0.768 l 14.459,-33.67 c 0.131,-0.297 0.108,-0.611 -0.074,-0.943 -0.182,-0.328 -0.537,-0.494 -1.065,-0.494 H 12.18 c -0.364,0 -0.701,0.105 -1.014,0.322 -0.314,0.213 -0.555,0.469 -0.717,0.766 L 9.111,-9.508 C 8.945,-9.209 8.707,-8.955 8.393,-8.74 8.08,-8.525 7.756,-8.418 7.428,-8.418 H -3.02 c -0.363,0 -0.703,-0.107 -1.017,-0.322 -0.313,-0.215 -0.535,-0.469 -0.666,-0.768 L -6.09,-12.48 c -0.131,-0.297 -0.355,-0.553 -0.668,-0.766 -0.316,-0.217 -0.635,-0.322 -0.965,-0.322 h -8.517 c -0.164,0 -0.336,0.033 -0.52,0.099 -0.181,0.067 -0.33,0.166 -0.447,0.297 -0.113,0.131 -0.189,0.297 -0.223,0.496 -0.031,0.196 0.018,0.428 0.149,0.694 z"
             style="fill:#ff8300;fill-opacity:1;fill-rule:nonzero;stroke:none"
             id="path88"
             inkscape:connector-curvature="0" />
        </g>
        <g
           id="g90"
           transform="translate(587.0371,220.0889)"
           style="fill:#ff8300;fill-opacity:1">
          <path
             d="m 0,0 h 3.715 c 0.924,0 1.881,0.115 2.873,0.346 0.988,0.232 1.881,0.67 2.67,1.312 0.793,0.645 1.445,1.553 1.959,2.723 0.51,1.172 0.765,2.699 0.765,4.58 0,1.881 -0.255,3.41 -0.765,4.58 -0.514,1.172 -1.174,2.08 -1.983,2.725 -0.808,0.644 -1.701,1.08 -2.672,1.312 -0.974,0.231 -1.923,0.346 -2.847,0.346 H 0 c -0.33,0 -0.611,-0.115 -0.842,-0.346 -0.23,-0.232 -0.345,-0.512 -0.345,-0.842 V 1.187 c 0,-0.33 0.115,-0.609 0.345,-0.841 C -0.611,0.115 -0.33,0 0,0 m -10.992,-7.922 v 33.869 c 0,0.326 0.117,0.61 0.347,0.838 0.229,0.233 0.51,0.35 0.842,0.35 H 3.715 c 5.181,0 9.424,-1.52 12.724,-4.557 1.782,-1.65 3.135,-3.617 4.061,-5.892 0.924,-2.278 1.387,-4.834 1.387,-7.674 0,-2.84 -0.463,-5.407 -1.387,-7.701 C 19.574,-0.982 18.221,-2.955 16.439,-4.604 14.789,-6.09 12.898,-7.213 10.771,-7.971 8.643,-8.73 6.289,-9.111 3.715,-9.111 H -9.803 c -0.332,0 -0.613,0.117 -0.842,0.345 -0.23,0.231 -0.347,0.512 -0.347,0.844"
             style="fill:#ff8300;fill-opacity:1;fill-rule:nonzero;stroke:none"
             id="path92"
             inkscape:connector-curvature="0" />
        </g>
        <g
           id="g94"
           transform="translate(624.3711,224.5459)"
           style="fill:#ff8300;fill-opacity:1">
          <path
             d="M 0,0 H 4.406 C 4.736,0 4.977,0.105 5.127,0.32 5.273,0.535 5.264,0.791 5.1,1.09 4.77,1.914 4.375,2.879 3.914,3.986 3.449,5.092 3.021,6.121 2.625,7.078 2.492,7.377 2.344,7.525 2.18,7.525 2.014,7.525 1.865,7.377 1.732,7.078 L -0.742,1.09 C -0.875,0.791 -0.875,0.535 -0.742,0.32 -0.609,0.105 -0.363,0 0,0 m -2.922,21.539 c 0.135,0.295 0.356,0.551 0.672,0.768 0.311,0.213 0.648,0.32 1.012,0.32 h 6.933 c 0.33,0 0.651,-0.107 0.965,-0.32 0.315,-0.217 0.537,-0.473 0.668,-0.768 l 14.459,-33.67 c 0.131,-0.297 0.108,-0.611 -0.076,-0.943 -0.18,-0.328 -0.535,-0.494 -1.063,-0.494 H 12.18 c -0.362,0 -0.701,0.105 -1.014,0.322 -0.314,0.213 -0.555,0.469 -0.717,0.766 L 9.113,-9.508 C 8.945,-9.209 8.707,-8.955 8.393,-8.74 8.078,-8.525 7.756,-8.418 7.428,-8.418 H -3.02 c -0.363,0 -0.701,-0.107 -1.015,-0.322 -0.315,-0.215 -0.537,-0.469 -0.666,-0.768 L -6.09,-12.48 c -0.133,-0.297 -0.355,-0.553 -0.67,-0.766 -0.312,-0.217 -0.633,-0.322 -0.963,-0.322 h -8.517 c -0.164,0 -0.336,0.033 -0.52,0.099 -0.181,0.067 -0.33,0.166 -0.445,0.297 -0.115,0.131 -0.191,0.297 -0.223,0.496 -0.033,0.196 0.016,0.428 0.149,0.694 z"
             style="fill:#ff8300;fill-opacity:1;fill-rule:nonzero;stroke:none"
             id="path96"
             inkscape:connector-curvature="0" />
        </g>
        <g
           id="g98"
           transform="translate(683.4414,246.0361)"
           style="fill:#ff8300;fill-opacity:1">
          <path
             d="m 0,0 v -33.869 c 0,-0.332 -0.115,-0.613 -0.346,-0.844 -0.23,-0.228 -0.509,-0.346 -0.84,-0.346 h -7.312 c -0.332,0 -0.678,0.1 -1.039,0.297 -0.361,0.198 -0.641,0.428 -0.84,0.694 l -12.894,18.172 c -0.2,0.265 -0.407,0.371 -0.62,0.322 -0.214,-0.049 -0.32,-0.24 -0.32,-0.569 v -17.726 c 0,-0.332 -0.117,-0.613 -0.35,-0.844 -0.232,-0.228 -0.515,-0.346 -0.845,-0.346 h -7.414 c -0.332,0 -0.616,0.118 -0.848,0.346 -0.232,0.231 -0.35,0.512 -0.35,0.844 V 0 c 0,0.326 0.118,0.609 0.348,0.838 0.231,0.232 0.512,0.349 0.844,0.349 h 7.426 c 0.33,0 0.675,-0.093 1.041,-0.271 0.361,-0.184 0.642,-0.408 0.839,-0.67 l 12.875,-18.172 c 0.198,-0.265 0.403,-0.379 0.62,-0.345 0.214,0.031 0.32,0.212 0.32,0.542 V 0 c 0,0.326 0.115,0.609 0.348,0.838 0.23,0.232 0.511,0.349 0.841,0.349 h 7.327 c 0.332,0 0.613,-0.117 0.843,-0.349 C -0.115,0.609 0,0.326 0,0"
             style="fill:#ff8300;fill-opacity:1;fill-rule:nonzero;stroke:none"
             id="path100"
             inkscape:connector-curvature="0" />
        </g>
        <g
           id="g102"
           transform="translate(697.7051,229.1006)"
           style="fill:#ff8300;fill-opacity:1">
          <path
             d="m 0,0 c 0,-1.256 0.229,-2.443 0.691,-3.566 0.461,-1.121 1.096,-2.112 1.907,-2.969 0.808,-0.86 1.757,-1.545 2.845,-2.057 1.09,-0.512 2.246,-0.767 3.469,-0.767 1.219,0 2.373,0.255 3.463,0.767 1.092,0.512 2.047,1.197 2.875,2.057 0.822,0.857 1.467,1.848 1.93,2.969 0.461,1.123 0.693,2.31 0.693,3.566 0,1.221 -0.232,2.4 -0.693,3.539 C 16.717,4.68 16.072,5.668 15.25,6.512 14.422,7.352 13.467,8.029 12.375,8.541 11.285,9.053 10.131,9.309 8.912,9.309 7.689,9.309 6.533,9.053 5.443,8.541 4.355,8.029 3.406,7.352 2.598,6.512 1.787,5.668 1.152,4.68 0.691,3.539 0.229,2.4 0,1.221 0,0 m -9.805,0 c 0,2.574 0.492,5 1.483,7.277 0.99,2.28 2.33,4.268 4.013,5.969 1.684,1.699 3.663,3.043 5.94,4.033 2.279,0.992 4.707,1.487 7.281,1.487 2.574,0 4.998,-0.495 7.275,-1.487 2.28,-0.99 4.268,-2.334 5.969,-4.033 1.699,-1.701 3.045,-3.689 4.035,-5.969 C 27.182,5 27.676,2.574 27.676,0 c 0,-2.574 -0.494,-5 -1.485,-7.279 -0.99,-2.278 -2.336,-4.266 -4.035,-5.967 -1.701,-1.699 -3.689,-3.045 -5.969,-4.035 -2.277,-0.99 -4.701,-1.487 -7.275,-1.487 -2.574,0 -5.002,0.497 -7.281,1.487 -2.277,0.99 -4.256,2.336 -5.94,4.035 -1.683,1.701 -3.023,3.689 -4.013,5.967 C -9.313,-5 -9.805,-2.574 -9.805,0"
             style="fill:#ff8300;fill-opacity:1;fill-rule:nonzero;stroke:none"
             id="path104"
             inkscape:connector-curvature="0" />
        </g>
      </g>
    </g>
  </g>
</svg>
